<svg width="64" height="40" viewBox="0 0 64 40" fill="none" xmlns="http://www.w3.org/2000/svg">
<path d="M47.875 0.922379C46.1298 1.03699 44.044 1.43817 42.7642 1.90483C38.5758 3.42764 36.5481 6.44869 36.0412 11.9341C35.9249 13.113 35.9332 27.023 36.0412 28.3329C36.2656 30.92 36.9969 33.2534 38.0938 34.8662C39.706 37.2405 42.465 38.575 46.5703 38.968C47.8667 39.0908 51.3154 39.1154 52.4872 39.0089C56.6174 38.6405 59.5758 37.5598 62.6423 35.3083L63.2074 34.8908V29.1762V23.4616H57.8889H52.562L52.5786 26.0569C52.5869 28.161 52.562 28.7668 52.454 29.2171C52.2213 30.1914 51.8722 30.6662 51.1576 30.9855C50.7254 31.182 49.7614 31.2148 49.2296 31.0592C48.8141 30.9364 48.2074 30.4124 47.9913 29.9949C47.5925 29.2171 47.5841 29.1434 47.5841 19.9984C47.5841 13.9563 47.6091 11.2464 47.6756 10.8534C47.8085 10.1002 48.1243 9.49431 48.5648 9.15863C49.0135 8.82296 49.3792 8.72472 50.1686 8.72472C50.9498 8.72472 51.5481 8.98671 51.9221 9.49431C52.5038 10.2803 52.5869 10.8124 52.5786 13.5715L52.562 15.7657H57.8889H63.2074V10.5341V5.30249L62.6506 4.89314C59.8667 2.87091 56.8335 1.58553 53.8335 1.15162C52.0883 0.906002 49.6285 0.807758 47.875 0.922379Z" fill="#293163"/>
<path d="M0.298828 4.87692V8.15177H0.506584C0.822374 8.15177 1.26282 8.59388 1.45395 9.09329C1.54537 9.33072 1.66171 9.83832 1.71157 10.2149C1.82791 11.1319 1.82791 28.7342 1.71157 29.6839C1.55368 30.9529 1.20465 31.6161 0.589687 31.8126L0.298828 31.9108V35.1366V38.3623H7.48719H14.6756V35.1366V31.9108L14.4346 31.8535C13.8612 31.7307 13.5703 31.1331 13.429 29.8067C13.3875 29.3974 13.3459 27.6781 13.3459 25.9752V22.8886H15.8889H18.4235L18.3902 26.6301C18.3653 29.6758 18.3321 30.4699 18.2323 30.8547C18.0828 31.3951 17.7753 31.7717 17.4096 31.8453L17.1686 31.8863V35.1284V38.3623H24.3155H31.4623V35.1448V31.9272L31.1132 31.7717C30.7143 31.5915 30.4484 31.2477 30.2323 30.6336C30.0994 30.2489 30.0911 29.4629 30.0661 20.3097C30.0495 13.3834 30.0661 10.2395 30.1326 9.87107C30.3071 8.86406 30.7974 8.15177 31.321 8.15177C31.454 8.15177 31.4623 7.93891 31.4623 4.87692V1.60207H24.3155H17.1686V4.87692V8.15177H17.3764C17.4927 8.15177 17.7005 8.25002 17.8418 8.38101C18.2988 8.78218 18.3487 9.18335 18.3902 12.712L18.4318 15.8477H15.8805H13.3293L13.3625 12.8758C13.3958 10.4032 13.4207 9.81376 13.5454 9.31435C13.7116 8.63482 13.9775 8.26639 14.3681 8.16815L14.634 8.10265L14.6589 4.85236L14.6756 1.60207H7.48719H0.298828V4.87692Z" fill="#E75821"/>
</svg>
